<?xml version="1.0" encoding="UTF-8" standalone="no"?>
<svg
   xmlns:dc="http://purl.org/dc/elements/1.1/"
   xmlns:cc="http://creativecommons.org/ns#"
   xmlns:rdf="http://www.w3.org/1999/02/22-rdf-syntax-ns#"
   xmlns:svg="http://www.w3.org/2000/svg"
   xmlns="http://www.w3.org/2000/svg"
   xmlns:xlink="http://www.w3.org/1999/xlink"
   xmlns:sodipodi="http://sodipodi.sourceforge.net/DTD/sodipodi-0.dtd"
   xmlns:inkscape="http://www.inkscape.org/namespaces/inkscape"
   id="Capa_1"
   enable-background="new 0 0 512.001 512.001"
   height="250"
   viewBox="0 0 512.001 250.00049"
   width="512"
   version="1.1"
   sodipodi:docname="cutefishos_1.svg"
   inkscape:version="1.0.2 (e86c870879, 2021-01-15)"
   inkscape:export-filename="/home/rekols/Downloads/cutefishos.png"
   inkscape:export-xdpi="200"
   inkscape:export-ydpi="200">
  <metadata
     id="metadata20">
    <rdf:RDF>
      <cc:Work
         rdf:about="">
        <dc:format>image/svg+xml</dc:format>
        <dc:type
           rdf:resource="http://purl.org/dc/dcmitype/StillImage" />
        <dc:title></dc:title>
      </cc:Work>
    </rdf:RDF>
  </metadata>
  <defs
     id="defs18">
    <linearGradient
       inkscape:collect="always"
       xlink:href="#SVGID_1_"
       id="linearGradient857"
       gradientUnits="userSpaceOnUse"
       x1="256"
       y1="358.99899"
       x2="256"
       y2="153.002" />
  </defs>
  <sodipodi:namedview
     pagecolor="#ffffff"
     bordercolor="#666666"
     borderopacity="1"
     objecttolerance="10"
     gridtolerance="10"
     guidetolerance="10"
     inkscape:pageopacity="0"
     inkscape:pageshadow="2"
     inkscape:window-width="2160"
     inkscape:window-height="1258"
     id="namedview16"
     showgrid="false"
     inkscape:zoom="1.4355469"
     inkscape:cx="232.66395"
     inkscape:cy="200.27211"
     inkscape:window-x="0"
     inkscape:window-y="35"
     inkscape:window-maximized="1"
     inkscape:current-layer="Capa_1"
     inkscape:document-rotation="0" />
  <linearGradient
     id="SVGID_1_"
     gradientUnits="userSpaceOnUse"
     x1="256"
     x2="256"
     y1="358.99899"
     y2="153.002">
    <stop
       offset="0"
       stop-color="#5558ff"
       id="stop2" />
    <stop
       offset="1"
       stop-color="#00c0ff"
       id="stop4" />
  </linearGradient>
  <g
     id="g13"
     transform="translate(-4.761204e-4,-130.99982)">
    <g
       id="g11">
      <g
         id="g9">
        <path
           d="m 407,271.001 c 8.284,0 15,-6.716 15,-15 0,-8.284 -6.716,-15 -15,-15 -8.284,0 -15,6.716 -15,15 0,8.284 6.716,15 15,15 z m 100.607,-25.607 c -31.568,-31.569 -61.924,-54.228 -92.798,-69.269 -35.594,-17.341 -71.939,-24.803 -111.098,-22.809 -41.725,2.123 -85.538,14.913 -133.944,39.101 -24.547,12.266 -49.936,27.295 -76.519,45.315 -21.74,-15.507 -44.585,-33.206 -68.645,-53.256 -6.364,-5.303 -15.821,-4.444 -21.126,1.921 -5.304,6.364 -4.443,15.822 1.921,21.126 21.418,17.848 42.002,33.97 61.898,48.477 -19.896,14.506 -40.48,30.628 -61.898,48.477 -6.364,5.304 -7.225,14.762 -1.921,21.126 5.321,6.385 14.783,7.208 21.126,1.921 24.06,-20.05 46.905,-37.749 68.646,-53.256 26.583,18.02 51.972,33.049 76.519,45.315 45.789,22.881 95.02,39.416 146.205,39.416 34.534,0 66.986,-7.606 98.837,-23.124 30.874,-15.041 61.229,-37.699 92.798,-69.269 2.929,-2.929 4.394,-6.768 4.394,-10.606 0,-3.838 -1.466,-7.677 -4.395,-10.606 z m -387.721,10.607 c 168.389,-110.761 267.602,-82.731 355.575,0 -87.974,82.73 -187.187,110.761 -355.575,0 z"
           fill="url(#SVGID_1_)"
           id="path7"
           style="fill:url(#linearGradient857)" />
      </g>
    </g>
  </g>
</svg>
